
<svg xmlns="http://www.w3.org/2000/svg" viewBox="0 0 411.48 161.84">
    <style>
        .st1{fill:#b92454}
    </style>
    <g id="Layer_2_copy">
        <path d="M67.85 24.94c0-.79.28-1.47.83-2.02.55-.55 1.22-.83 2.02-.83.79 0 1.47.28 2.02.83.55.55.83 1.22.83 2.02v6.47c6.21-6.21 12.87-9.31 19.99-9.31 3.82 0 7.09.6 9.81 1.79.49.18.93.47 1.33.87.52.52.78 1.19.78 2.02 0 .79-.27 1.47-.83 2.02-.55.55-1.22.83-2.02.83-.49 0-.92-.09-1.28-.28-2.14-1.04-4.74-1.56-7.79-1.56-5.5 0-10.21 1.96-14.12 5.87-3.91 3.88-5.87 8.59-5.87 14.12v22.83c0 .8-.27 1.47-.83 2.02s-1.22.83-2.02.83c-.79 0-1.47-.27-2.02-.83-.55-.55-.83-1.22-.83-2.02V24.94zM157.36 64.15c-6.17 6.21-12.82 9.31-19.95 9.31-7.09 0-13.14-2.51-18.16-7.52-5.01-5.01-7.52-11.07-7.52-18.16s2.51-13.14 7.52-18.16c5.01-5.01 11.07-7.52 18.16-7.52s13.14 2.51 18.16 7.52c5.01 5.01 7.52 11.07 7.52 18.16v22.83c0 .8-.27 1.47-.83 2.02s-1.22.83-2.02.83-1.48-.27-2.04-.83c-.57-.55-.85-1.22-.85-2.02v-6.46zm-19.95-36.36c-5.5 0-10.21 1.96-14.12 5.87-3.91 3.91-5.87 8.62-5.87 14.12s1.96 10.21 5.87 14.12c3.91 3.91 8.62 5.87 14.12 5.87s10.21-1.96 14.12-5.87c3.88-3.88 5.82-8.59 5.82-14.12 0-5.53-1.94-10.24-5.82-14.12-3.91-3.92-8.62-5.87-14.12-5.87zM216.05 2.93c0-.79.28-1.47.85-2.02.56-.55 1.24-.83 2.04-.83s1.47.27 2.02.83c.55.55.83 1.22.83 2.02v44.84c0 7.09-2.51 13.14-7.52 18.16-5.01 5.01-11.07 7.52-18.16 7.52s-13.14-2.51-18.16-7.52-7.52-11.07-7.52-18.16 2.51-13.14 7.52-18.16c5.01-5.01 11.07-7.52 18.16-7.52s13.14 2.51 18.16 7.52l1.79 1.79V2.93zm0 44.85c0-5.53-1.94-10.24-5.82-14.12-3.91-3.91-8.62-5.87-14.12-5.87s-10.21 1.96-14.12 5.87c-3.91 3.91-5.87 8.62-5.87 14.12s1.96 10.21 5.87 14.12c3.91 3.91 8.62 5.87 14.12 5.87s10.21-1.96 14.12-5.87c3.88-3.88 5.82-8.59 5.82-14.12zM239.89 9.72c0 1.07-.37 1.97-1.1 2.71-.73.73-1.64 1.1-2.71 1.1-1.04 0-1.93-.37-2.68-1.1-.75-.73-1.12-1.63-1.12-2.71 0-1.04.37-1.93 1.12-2.68.75-.75 1.64-1.12 2.68-1.12 1.07 0 1.97.37 2.71 1.12.73.75 1.1 1.64 1.1 2.68zm-6.65 15.22c0-.79.28-1.47.83-2.02.55-.55 1.22-.83 2.02-.83s1.47.28 2.04.83c.57.55.85 1.22.85 2.02v45.67c0 .8-.28 1.47-.85 2.02s-1.25.83-2.04.83-1.47-.27-2.02-.83c-.55-.55-.83-1.22-.83-2.02V24.94zM259.97 46.86h.05c-1.41-.52-2.58-1.03-3.53-1.54-.95-.5-1.68-1.03-2.2-1.58-2.05-2.11-3.07-4.57-3.07-7.38 0-2.84 1.07-5.36 3.21-7.57 4.4-4.46 10.15-6.69 17.24-6.69 3.79 0 7.35.8 10.68 2.41 3.33 1.6 6.34 3.87 9.03 6.81.34.43.5.96.5 1.6 0 .79-.28 1.48-.85 2.04-.57.57-1.25.85-2.04.85-.76 0-1.36-.24-1.79-.73l-1.42-1.42c-3.91-3.91-8.62-5.87-14.12-5.87-5.53 0-9.98 1.77-13.34 5.32-.92 1.07-1.38 2.38-1.38 3.94.06.92.34 1.71.83 2.38.49.67 1.21 1.18 2.16 1.51l23.43 7.75h-.05c1.41.52 2.58 1.03 3.53 1.54s1.67 1.03 2.16 1.58c2.08 2.08 3.12 4.54 3.12 7.38 0 2.87-1.09 5.4-3.26 7.57-4.37 4.46-10.1 6.69-17.19 6.69-7.67 0-14.25-3.06-19.72-9.17-.34-.46-.5-1.01-.5-1.65 0-.79.28-1.47.83-2.04.55-.57 1.22-.85 2.02-.85.73 0 1.34.25 1.83.73l1.42 1.42c3.91 3.91 8.62 5.87 14.12 5.87s9.92-1.76 13.25-5.27c.95-1.07 1.42-2.38 1.42-3.94-.15-1.96-1.15-3.27-2.98-3.94l-23.39-7.75zM299.77 2.84c0-.79.28-1.47.83-2.02.55-.55 1.22-.83 2.02-.83s1.47.27 2.02.83c.55.55.83 1.22.83 2.02v27.42c5.62-5.44 11.65-8.16 18.07-8.16 6.6 0 12.2 2.32 16.78 6.97 4.68 4.65 7.02 10.26 7.02 16.83v24.71c0 .8-.28 1.47-.85 2.02s-1.25.83-2.04.83-1.47-.27-2.02-.83-.83-1.22-.83-2.02V45.9c0-5.04-1.77-9.29-5.32-12.75-3.55-3.58-7.79-5.36-12.75-5.36-4.95 0-9.22 1.79-12.79 5.36-3.52 3.48-5.27 7.73-5.27 12.75v24.71c0 .8-.27 1.47-.83 2.02-.55.55-1.22.83-2.02.83s-1.47-.27-2.02-.83c-.55-.55-.83-1.22-.83-2.02V2.84z"/>
        <g>
            <path d="M40.44 128.69c.79 0 1.47.28 2.02.85s.83 1.25.83 2.04-.29 1.48-.87 2.06a25.56 25.56 0 01-7.75 4.58c-2.84 1.07-5.84 1.6-8.99 1.6-7.09 0-13.14-2.51-18.16-7.52-5.01-5-7.52-11.05-7.52-18.15S2.51 101.01 7.52 96c5.01-5.01 11.07-7.52 18.16-7.52 3.15 0 6.15.54 9.01 1.61 2.86 1.07 5.43 2.6 7.73 4.58.27.28.51.61.71 1.01.2.4.3.81.3 1.24 0 .79-.28 1.47-.83 2.02-.55.55-1.22.83-2.02.83-.73 0-1.35-.23-1.83-.69-3.73-3.27-8.09-4.91-13.07-4.91-5.5 0-10.21 1.96-14.12 5.87-3.88 3.88-5.82 8.59-5.82 14.12 0 5.53 1.94 10.24 5.82 14.12 3.91 3.91 8.62 5.87 14.12 5.87 2.41 0 4.75-.44 6.99-1.33 2.25-.89 4.27-2.08 6.08-3.58.45-.37 1.02-.55 1.69-.55zM110.09 91.32c0-.79.28-1.47.83-2.02.55-.55 1.22-.83 2.02-.83s1.47.28 2.02.83c.55.55.83 1.22.83 2.02v5.32c5.62-5.44 11.65-8.16 18.07-8.16 6.6 0 12.2 2.32 16.78 6.97 4.68 4.65 7.02 10.26 7.02 16.83v24.71c0 .8-.28 1.47-.85 2.02s-1.25.83-2.04.83-1.47-.27-2.02-.83c-.55-.55-.83-1.22-.83-2.02v-24.71c0-5.04-1.77-9.29-5.32-12.75-3.55-3.58-7.79-5.37-12.75-5.37-4.95 0-9.22 1.79-12.79 5.37-3.52 3.48-5.27 7.73-5.27 12.75v24.71c0 .8-.27 1.47-.83 2.02-.55.55-1.22.83-2.02.83s-1.47-.27-2.02-.83c-.55-.55-.83-1.22-.83-2.02V91.32zM205.51 128.69c.79 0 1.47.28 2.02.85s.83 1.25.83 2.04-.29 1.48-.87 2.06a25.56 25.56 0 01-7.75 4.58c-2.84 1.07-5.84 1.6-8.99 1.6-7.09 0-13.14-2.51-18.16-7.52-5.01-5.01-7.52-11.07-7.52-18.16s2.51-13.14 7.52-18.16c5.01-5.01 11.07-7.52 18.16-7.52 3.15 0 6.15.54 9.01 1.61 2.86 1.07 5.43 2.6 7.73 4.58.28.28.51.61.71 1.01.2.4.3.81.3 1.24 0 .79-.27 1.47-.83 2.02-.55.55-1.22.83-2.02.83-.73 0-1.35-.23-1.83-.69-3.73-3.27-8.09-4.91-13.07-4.91-5.5 0-10.21 1.96-14.12 5.87-3.88 3.88-5.82 8.59-5.82 14.12 0 5.53 1.94 10.24 5.82 14.12 3.91 3.91 8.62 5.87 14.12 5.87 2.41 0 4.75-.44 6.99-1.33s4.27-2.08 6.08-3.58c.45-.35 1.02-.53 1.69-.53zM256.73 128.78c.79 0 1.47.28 2.02.85s.83 1.25.83 2.04-.25 1.45-.73 1.97c-4.77 4.13-10.35 6.19-16.74 6.19-7.09 0-13.14-2.51-18.16-7.52-5.01-5.01-7.52-11.07-7.52-18.16s2.51-13.14 7.52-18.16 11.07-7.52 18.16-7.52 13.14 2.51 18.16 7.52c5.01 5.01 7.52 11.07 7.52 18.16 0 .79-.28 1.47-.83 2.02-.55.55-1.22.83-2.02.83H222.2c.92 4.58 2.84 8.34 5.78 11.28 3.91 3.91 8.62 5.87 14.12 5.87 2.51 0 4.83-.4 6.97-1.21 2.14-.81 4.1-1.98 5.87-3.51a2.67 2.67 0 011.79-.65zm5.22-17.47c-.86-4.55-2.77-8.31-5.73-11.28-3.91-3.91-8.62-5.87-14.12-5.87s-10.21 1.96-14.12 5.87c-2.93 2.93-4.86 6.69-5.78 11.28h39.75zM280.8 159c0 .79-.27 1.47-.83 2.02-.55.55-1.22.82-2.02.82s-1.47-.27-2.02-.82c-.55-.55-.83-1.22-.83-2.02v-44.84c0-7.09 2.51-13.14 7.52-18.16s11.07-7.52 18.16-7.52 13.14 2.51 18.16 7.52c5.01 5.01 7.52 11.07 7.52 18.16s-2.51 13.14-7.52 18.16c-5.01 5.01-11.07 7.52-18.16 7.52s-13.14-2.51-18.16-7.52l-1.83-1.79V159zm0-44.85c0 5.5 1.96 10.21 5.87 14.12 3.91 3.91 8.62 5.87 14.12 5.87s10.21-1.96 14.12-5.87c3.88-3.88 5.82-8.59 5.82-14.12 0-5.53-1.94-10.24-5.82-14.12-3.91-3.91-8.62-5.87-14.12-5.87s-10.21 1.96-14.12 5.87c-3.92 3.91-5.87 8.62-5.87 14.12zM359.66 134.15c.79 0 1.47.28 2.04.83.57.55.85 1.22.85 2.02s-.28 1.47-.85 2.02-1.25.83-2.04.83c-12.04 0-18.07-6.02-18.07-18.07v-27.6h-4.72c-.79 0-1.48-.27-2.04-.83-.57-.55-.85-1.22-.85-2.02 0-.79.28-1.47.85-2.02.56-.55 1.25-.83 2.04-.83h4.72V69.26c0-.79.28-1.47.83-2.02.55-.55 1.22-.83 2.02-.83s1.47.27 2.04.83c.56.55.85 1.22.85 2.02v19.21h8.57c.79 0 1.47.28 2.04.83.57.55.85 1.22.85 2.02s-.28 1.47-.85 2.02-1.25.83-2.04.83h-8.57v27.6c0 8.25 4.11 12.38 12.33 12.38zM379.33 113.24h.05c-1.41-.52-2.58-1.03-3.53-1.54-.95-.5-1.68-1.03-2.2-1.58-2.05-2.11-3.07-4.57-3.07-7.38 0-2.84 1.07-5.37 3.21-7.57 4.4-4.46 10.15-6.69 17.24-6.69 3.79 0 7.35.8 10.68 2.41s6.34 3.88 9.03 6.81c.34.43.5.96.5 1.6 0 .79-.28 1.48-.85 2.04s-1.25.85-2.04.85c-.76 0-1.36-.24-1.79-.73l-1.42-1.42c-3.91-3.91-8.62-5.87-14.12-5.87-5.53 0-9.98 1.77-13.34 5.32-.92 1.07-1.38 2.38-1.38 3.94.06.92.34 1.71.83 2.38.49.67 1.21 1.18 2.16 1.51l23.43 7.75h-.05c1.41.52 2.58 1.03 3.53 1.54.95.5 1.67 1.03 2.16 1.58 2.08 2.08 3.12 4.54 3.12 7.38 0 2.87-1.09 5.4-3.26 7.57-4.37 4.46-10.1 6.69-17.19 6.69-7.67 0-14.25-3.06-19.72-9.17-.34-.46-.5-1.01-.5-1.65 0-.79.28-1.47.83-2.04.55-.57 1.22-.85 2.02-.85.73 0 1.34.25 1.83.73l1.42 1.42c3.91 3.91 8.62 5.87 14.12 5.87s9.92-1.76 13.25-5.27c.95-1.07 1.42-2.38 1.42-3.94-.15-1.96-1.15-3.27-2.98-3.94l-23.39-7.75z"/>
        </g>
    </g>
    <path d="M55.08 50.31c-2.7 3.51-5.23 7.12-7.06 11.17-1.51 3.34-2.42 6.78-1.77 10.49.02.11.06.25-.14.35-1.1-.4-2.26-.68-3.45-.85-1.19-.16-2.39-.23-3.59-.21-5.24.1-10.26 1.36-15.24 2.83-.31.09-.67.11-.95.38 5.69 1.84 8.6 3.98 11.94 8.77.76 1.09 1.51 2.18 2.37 3.2 3.01 3.57 11.12 5.72 14.69.15.19-.3.36-.27.61-.06 2.18 1.89 4.22 3.94 6.01 6.2 3.47 4.37 6.2 9.16 7.93 14.49.16.49.32.45.67.18.85-.65 1.71-1.29 2.6-1.89.41-.27.43-.52.25-.94-1.04-2.4-2.23-4.71-3.67-6.89-.3-.45-.26-.68.21-.94.87-.49 1.69-1.05 2.55-1.56.35-.21.42-.34.05-.65a43.87 43.87 0 01-6.83-7.19c-1.67-2.2-3.16-4.52-4.44-6.96-.22-.42-.21-.62.32-.8 2.1-.71 3.59-2.12 4.46-4.14.83-1.92 1.05-3.94.85-6.01-.24-2.4-1.51-4.36-2.83-6.29-1.88-2.75-3.38-5.65-3.83-9.01-.25-1.88-.26-3.76-.09-5.87-.65.81-1.14 1.42-1.62 2.05zm-.39 30.28c.35.96.79 1.88 1.2 2.81.64 1.42 1.41 2.77 2.17 4.13-.05.14.26.3-.03.42-1.44-1.27-2.92-2.48-4.5-3.56-.31-.21-.43-.41-.33-.81.25-.92.3-1.86.27-2.81-.01-.25-.32-.7.12-.76.43-.07.89-.01 1.1.58z" fill="#76bc21" id="Layer_5"/>
    <g id="Layer_7">
        <circle class="st1" cx="77.03" cy="114.15" r="25.68"/>
        <path class="st1" d="M88.82 125.95h9.4v9.4h-9.4z"/>
    </g>
</svg>
